<mxfile host="app.diagrams.net" modified="2020-10-28T16:50:20.415Z" agent="5.0 (Windows NT 10.0; Win64; x64) AppleWebKit/537.36 (KHTML, like Gecko) Chrome/86.0.4240.111 Safari/537.36 Edg/86.0.622.56" etag="DbCpIXzbD2XuYrBWFta-" version="13.8.5" type="github">
  <diagram id="aMaXBnaIYGT4KekO0aj6" name="Page-1">
    <mxGraphModel dx="1812" dy="580" grid="1" gridSize="10" guides="1" tooltips="1" connect="1" arrows="1" fold="1" page="1" pageScale="1" pageWidth="850" pageHeight="1100" math="0" shadow="0">
      <root>
        <mxCell id="0" />
        <mxCell id="1" parent="0" />
        <mxCell id="jRo9vK5PYB-S02NQwqbe-42" value="Person" style="shape=table;startSize=30;container=1;collapsible=1;childLayout=tableLayout;fixedRows=1;rowLines=0;fontStyle=1;align=center;resizeLast=1;html=1;" vertex="1" parent="1">
          <mxGeometry x="-30" y="280" width="180" height="190" as="geometry" />
        </mxCell>
        <mxCell id="jRo9vK5PYB-S02NQwqbe-43" value="" style="shape=partialRectangle;collapsible=0;dropTarget=0;pointerEvents=0;fillColor=none;top=0;left=0;bottom=1;right=0;points=[[0,0.5],[1,0.5]];portConstraint=eastwest;" vertex="1" parent="jRo9vK5PYB-S02NQwqbe-42">
          <mxGeometry y="30" width="180" height="30" as="geometry" />
        </mxCell>
        <mxCell id="jRo9vK5PYB-S02NQwqbe-44" value="PK" style="shape=partialRectangle;connectable=0;fillColor=none;top=0;left=0;bottom=0;right=0;fontStyle=1;overflow=hidden;" vertex="1" parent="jRo9vK5PYB-S02NQwqbe-43">
          <mxGeometry width="30" height="30" as="geometry" />
        </mxCell>
        <mxCell id="jRo9vK5PYB-S02NQwqbe-45" value="Person_id" style="shape=partialRectangle;connectable=0;fillColor=none;top=0;left=0;bottom=0;right=0;align=left;spacingLeft=6;fontStyle=5;overflow=hidden;" vertex="1" parent="jRo9vK5PYB-S02NQwqbe-43">
          <mxGeometry x="30" width="150" height="30" as="geometry" />
        </mxCell>
        <mxCell id="jRo9vK5PYB-S02NQwqbe-46" value="" style="shape=partialRectangle;collapsible=0;dropTarget=0;pointerEvents=0;fillColor=none;top=0;left=0;bottom=0;right=0;points=[[0,0.5],[1,0.5]];portConstraint=eastwest;" vertex="1" parent="jRo9vK5PYB-S02NQwqbe-42">
          <mxGeometry y="60" width="180" height="30" as="geometry" />
        </mxCell>
        <mxCell id="jRo9vK5PYB-S02NQwqbe-47" value="" style="shape=partialRectangle;connectable=0;fillColor=none;top=0;left=0;bottom=0;right=0;editable=1;overflow=hidden;" vertex="1" parent="jRo9vK5PYB-S02NQwqbe-46">
          <mxGeometry width="30" height="30" as="geometry" />
        </mxCell>
        <mxCell id="jRo9vK5PYB-S02NQwqbe-48" value="Name" style="shape=partialRectangle;connectable=0;fillColor=none;top=0;left=0;bottom=0;right=0;align=left;spacingLeft=6;overflow=hidden;" vertex="1" parent="jRo9vK5PYB-S02NQwqbe-46">
          <mxGeometry x="30" width="150" height="30" as="geometry" />
        </mxCell>
        <mxCell id="jRo9vK5PYB-S02NQwqbe-49" value="" style="shape=partialRectangle;collapsible=0;dropTarget=0;pointerEvents=0;fillColor=none;top=0;left=0;bottom=0;right=0;points=[[0,0.5],[1,0.5]];portConstraint=eastwest;" vertex="1" parent="jRo9vK5PYB-S02NQwqbe-42">
          <mxGeometry y="90" width="180" height="30" as="geometry" />
        </mxCell>
        <mxCell id="jRo9vK5PYB-S02NQwqbe-50" value="" style="shape=partialRectangle;connectable=0;fillColor=none;top=0;left=0;bottom=0;right=0;editable=1;overflow=hidden;" vertex="1" parent="jRo9vK5PYB-S02NQwqbe-49">
          <mxGeometry width="30" height="30" as="geometry" />
        </mxCell>
        <mxCell id="jRo9vK5PYB-S02NQwqbe-51" value="Address" style="shape=partialRectangle;connectable=0;fillColor=none;top=0;left=0;bottom=0;right=0;align=left;spacingLeft=6;overflow=hidden;" vertex="1" parent="jRo9vK5PYB-S02NQwqbe-49">
          <mxGeometry x="30" width="150" height="30" as="geometry" />
        </mxCell>
        <mxCell id="jRo9vK5PYB-S02NQwqbe-52" value="" style="shape=partialRectangle;collapsible=0;dropTarget=0;pointerEvents=0;fillColor=none;top=0;left=0;bottom=0;right=0;points=[[0,0.5],[1,0.5]];portConstraint=eastwest;" vertex="1" parent="jRo9vK5PYB-S02NQwqbe-42">
          <mxGeometry y="120" width="180" height="30" as="geometry" />
        </mxCell>
        <mxCell id="jRo9vK5PYB-S02NQwqbe-53" value="" style="shape=partialRectangle;connectable=0;fillColor=none;top=0;left=0;bottom=0;right=0;editable=1;overflow=hidden;" vertex="1" parent="jRo9vK5PYB-S02NQwqbe-52">
          <mxGeometry width="30" height="30" as="geometry" />
        </mxCell>
        <mxCell id="jRo9vK5PYB-S02NQwqbe-54" value="Phone_no" style="shape=partialRectangle;connectable=0;fillColor=none;top=0;left=0;bottom=0;right=0;align=left;spacingLeft=6;overflow=hidden;" vertex="1" parent="jRo9vK5PYB-S02NQwqbe-52">
          <mxGeometry x="30" width="150" height="30" as="geometry" />
        </mxCell>
        <mxCell id="jRo9vK5PYB-S02NQwqbe-55" value="" style="shape=partialRectangle;collapsible=0;dropTarget=0;pointerEvents=0;fillColor=none;top=0;left=0;bottom=0;right=0;points=[[0,0.5],[1,0.5]];portConstraint=eastwest;" vertex="1" parent="jRo9vK5PYB-S02NQwqbe-42">
          <mxGeometry y="150" width="180" height="30" as="geometry" />
        </mxCell>
        <mxCell id="jRo9vK5PYB-S02NQwqbe-56" value="" style="shape=partialRectangle;connectable=0;fillColor=none;top=0;left=0;bottom=0;right=0;editable=1;overflow=hidden;" vertex="1" parent="jRo9vK5PYB-S02NQwqbe-55">
          <mxGeometry width="30" height="30" as="geometry" />
        </mxCell>
        <mxCell id="jRo9vK5PYB-S02NQwqbe-57" value="Department" style="shape=partialRectangle;connectable=0;fillColor=none;top=0;left=0;bottom=0;right=0;align=left;spacingLeft=6;overflow=hidden;" vertex="1" parent="jRo9vK5PYB-S02NQwqbe-55">
          <mxGeometry x="30" width="150" height="30" as="geometry" />
        </mxCell>
        <mxCell id="jRo9vK5PYB-S02NQwqbe-88" value="Request_details" style="shape=table;startSize=30;container=1;collapsible=1;childLayout=tableLayout;fixedRows=1;rowLines=0;fontStyle=1;align=center;resizeLast=1;html=1;" vertex="1" parent="1">
          <mxGeometry x="480" y="340" width="180" height="130" as="geometry" />
        </mxCell>
        <mxCell id="jRo9vK5PYB-S02NQwqbe-89" value="" style="shape=partialRectangle;collapsible=0;dropTarget=0;pointerEvents=0;fillColor=none;top=0;left=0;bottom=1;right=0;points=[[0,0.5],[1,0.5]];portConstraint=eastwest;" vertex="1" parent="jRo9vK5PYB-S02NQwqbe-88">
          <mxGeometry y="30" width="180" height="30" as="geometry" />
        </mxCell>
        <mxCell id="jRo9vK5PYB-S02NQwqbe-90" value="PK" style="shape=partialRectangle;connectable=0;fillColor=none;top=0;left=0;bottom=0;right=0;fontStyle=1;overflow=hidden;" vertex="1" parent="jRo9vK5PYB-S02NQwqbe-89">
          <mxGeometry width="30" height="30" as="geometry" />
        </mxCell>
        <mxCell id="jRo9vK5PYB-S02NQwqbe-91" value="Request_id" style="shape=partialRectangle;connectable=0;fillColor=none;top=0;left=0;bottom=0;right=0;align=left;spacingLeft=6;fontStyle=5;overflow=hidden;" vertex="1" parent="jRo9vK5PYB-S02NQwqbe-89">
          <mxGeometry x="30" width="150" height="30" as="geometry" />
        </mxCell>
        <mxCell id="jRo9vK5PYB-S02NQwqbe-92" value="" style="shape=partialRectangle;collapsible=0;dropTarget=0;pointerEvents=0;fillColor=none;top=0;left=0;bottom=0;right=0;points=[[0,0.5],[1,0.5]];portConstraint=eastwest;" vertex="1" parent="jRo9vK5PYB-S02NQwqbe-88">
          <mxGeometry y="60" width="180" height="30" as="geometry" />
        </mxCell>
        <mxCell id="jRo9vK5PYB-S02NQwqbe-93" value="FK" style="shape=partialRectangle;connectable=0;fillColor=none;top=0;left=0;bottom=0;right=0;editable=1;overflow=hidden;" vertex="1" parent="jRo9vK5PYB-S02NQwqbe-92">
          <mxGeometry width="30" height="30" as="geometry" />
        </mxCell>
        <mxCell id="jRo9vK5PYB-S02NQwqbe-94" value="Request_name" style="shape=partialRectangle;connectable=0;fillColor=none;top=0;left=0;bottom=0;right=0;align=left;spacingLeft=6;overflow=hidden;" vertex="1" parent="jRo9vK5PYB-S02NQwqbe-92">
          <mxGeometry x="30" width="150" height="30" as="geometry" />
        </mxCell>
        <mxCell id="jRo9vK5PYB-S02NQwqbe-95" value="" style="shape=partialRectangle;collapsible=0;dropTarget=0;pointerEvents=0;fillColor=none;top=0;left=0;bottom=0;right=0;points=[[0,0.5],[1,0.5]];portConstraint=eastwest;" vertex="1" parent="jRo9vK5PYB-S02NQwqbe-88">
          <mxGeometry y="90" width="180" height="30" as="geometry" />
        </mxCell>
        <mxCell id="jRo9vK5PYB-S02NQwqbe-96" value="FK" style="shape=partialRectangle;connectable=0;fillColor=none;top=0;left=0;bottom=0;right=0;editable=1;overflow=hidden;" vertex="1" parent="jRo9vK5PYB-S02NQwqbe-95">
          <mxGeometry width="30" height="30" as="geometry" />
        </mxCell>
        <mxCell id="jRo9vK5PYB-S02NQwqbe-97" value="Department" style="shape=partialRectangle;connectable=0;fillColor=none;top=0;left=0;bottom=0;right=0;align=left;spacingLeft=6;overflow=hidden;" vertex="1" parent="jRo9vK5PYB-S02NQwqbe-95">
          <mxGeometry x="30" width="150" height="30" as="geometry" />
        </mxCell>
        <mxCell id="jRo9vK5PYB-S02NQwqbe-104" value="Need_HoD_Approval" style="shape=table;startSize=30;container=1;collapsible=1;childLayout=tableLayout;fixedRows=1;rowLines=0;fontStyle=1;align=center;resizeLast=1;html=1;" vertex="1" parent="1">
          <mxGeometry x="480" y="140" width="180" height="100" as="geometry" />
        </mxCell>
        <mxCell id="jRo9vK5PYB-S02NQwqbe-117" value="" style="shape=partialRectangle;collapsible=0;dropTarget=0;pointerEvents=0;fillColor=none;top=0;left=0;bottom=1;right=0;points=[[0,0.5],[1,0.5]];portConstraint=eastwest;" vertex="1" parent="jRo9vK5PYB-S02NQwqbe-104">
          <mxGeometry y="30" width="180" height="30" as="geometry" />
        </mxCell>
        <mxCell id="jRo9vK5PYB-S02NQwqbe-118" value="PK" style="shape=partialRectangle;connectable=0;fillColor=none;top=0;left=0;bottom=0;right=0;fontStyle=1;overflow=hidden;" vertex="1" parent="jRo9vK5PYB-S02NQwqbe-117">
          <mxGeometry width="30" height="30" as="geometry" />
        </mxCell>
        <mxCell id="jRo9vK5PYB-S02NQwqbe-119" value="Request_Name" style="shape=partialRectangle;connectable=0;fillColor=none;top=0;left=0;bottom=0;right=0;align=left;spacingLeft=6;fontStyle=5;overflow=hidden;" vertex="1" parent="jRo9vK5PYB-S02NQwqbe-117">
          <mxGeometry x="30" width="150" height="30" as="geometry" />
        </mxCell>
        <mxCell id="jRo9vK5PYB-S02NQwqbe-108" value="" style="shape=partialRectangle;collapsible=0;dropTarget=0;pointerEvents=0;fillColor=none;top=0;left=0;bottom=0;right=0;points=[[0,0.5],[1,0.5]];portConstraint=eastwest;" vertex="1" parent="jRo9vK5PYB-S02NQwqbe-104">
          <mxGeometry y="60" width="180" height="30" as="geometry" />
        </mxCell>
        <mxCell id="jRo9vK5PYB-S02NQwqbe-109" value="" style="shape=partialRectangle;connectable=0;fillColor=none;top=0;left=0;bottom=0;right=0;editable=1;overflow=hidden;" vertex="1" parent="jRo9vK5PYB-S02NQwqbe-108">
          <mxGeometry width="30" height="30" as="geometry" />
        </mxCell>
        <mxCell id="jRo9vK5PYB-S02NQwqbe-110" value="Permission_required" style="shape=partialRectangle;connectable=0;fillColor=none;top=0;left=0;bottom=0;right=0;align=left;spacingLeft=6;overflow=hidden;" vertex="1" parent="jRo9vK5PYB-S02NQwqbe-108">
          <mxGeometry x="30" width="150" height="30" as="geometry" />
        </mxCell>
        <mxCell id="jRo9vK5PYB-S02NQwqbe-120" value="Hod" style="shape=table;startSize=20;container=1;collapsible=1;childLayout=tableLayout;fixedRows=1;rowLines=0;fontStyle=1;align=center;resizeLast=1;html=1;" vertex="1" parent="1">
          <mxGeometry x="480" y="610" width="180" height="100" as="geometry" />
        </mxCell>
        <mxCell id="jRo9vK5PYB-S02NQwqbe-121" value="" style="shape=partialRectangle;collapsible=0;dropTarget=0;pointerEvents=0;fillColor=none;top=0;left=0;bottom=1;right=0;points=[[0,0.5],[1,0.5]];portConstraint=eastwest;" vertex="1" parent="jRo9vK5PYB-S02NQwqbe-120">
          <mxGeometry y="20" width="180" height="30" as="geometry" />
        </mxCell>
        <mxCell id="jRo9vK5PYB-S02NQwqbe-122" value="PK" style="shape=partialRectangle;connectable=0;fillColor=none;top=0;left=0;bottom=0;right=0;fontStyle=1;overflow=hidden;" vertex="1" parent="jRo9vK5PYB-S02NQwqbe-121">
          <mxGeometry width="30" height="30" as="geometry" />
        </mxCell>
        <mxCell id="jRo9vK5PYB-S02NQwqbe-123" value="Department" style="shape=partialRectangle;connectable=0;fillColor=none;top=0;left=0;bottom=0;right=0;align=left;spacingLeft=6;fontStyle=5;overflow=hidden;" vertex="1" parent="jRo9vK5PYB-S02NQwqbe-121">
          <mxGeometry x="30" width="150" height="30" as="geometry" />
        </mxCell>
        <mxCell id="jRo9vK5PYB-S02NQwqbe-124" value="" style="shape=partialRectangle;collapsible=0;dropTarget=0;pointerEvents=0;fillColor=none;top=0;left=0;bottom=0;right=0;points=[[0,0.5],[1,0.5]];portConstraint=eastwest;" vertex="1" parent="jRo9vK5PYB-S02NQwqbe-120">
          <mxGeometry y="50" width="180" height="30" as="geometry" />
        </mxCell>
        <mxCell id="jRo9vK5PYB-S02NQwqbe-125" value="" style="shape=partialRectangle;connectable=0;fillColor=none;top=0;left=0;bottom=0;right=0;editable=1;overflow=hidden;" vertex="1" parent="jRo9vK5PYB-S02NQwqbe-124">
          <mxGeometry width="30" height="30" as="geometry" />
        </mxCell>
        <mxCell id="jRo9vK5PYB-S02NQwqbe-126" value="HoD_name" style="shape=partialRectangle;connectable=0;fillColor=none;top=0;left=0;bottom=0;right=0;align=left;spacingLeft=6;overflow=hidden;" vertex="1" parent="jRo9vK5PYB-S02NQwqbe-124">
          <mxGeometry x="30" width="150" height="30" as="geometry" />
        </mxCell>
        <mxCell id="jRo9vK5PYB-S02NQwqbe-133" value="ICTS_staff" style="shape=table;startSize=30;container=1;collapsible=1;childLayout=tableLayout;fixedRows=1;rowLines=0;fontStyle=1;align=center;resizeLast=1;html=1;" vertex="1" parent="1">
          <mxGeometry x="-30" y="580" width="180" height="130" as="geometry" />
        </mxCell>
        <mxCell id="jRo9vK5PYB-S02NQwqbe-134" value="" style="shape=partialRectangle;collapsible=0;dropTarget=0;pointerEvents=0;fillColor=none;top=0;left=0;bottom=1;right=0;points=[[0,0.5],[1,0.5]];portConstraint=eastwest;" vertex="1" parent="jRo9vK5PYB-S02NQwqbe-133">
          <mxGeometry y="30" width="180" height="30" as="geometry" />
        </mxCell>
        <mxCell id="jRo9vK5PYB-S02NQwqbe-135" value="PK" style="shape=partialRectangle;connectable=0;fillColor=none;top=0;left=0;bottom=0;right=0;fontStyle=1;overflow=hidden;" vertex="1" parent="jRo9vK5PYB-S02NQwqbe-134">
          <mxGeometry width="30" height="30" as="geometry" />
        </mxCell>
        <mxCell id="jRo9vK5PYB-S02NQwqbe-136" value="Staff_id" style="shape=partialRectangle;connectable=0;fillColor=none;top=0;left=0;bottom=0;right=0;align=left;spacingLeft=6;fontStyle=5;overflow=hidden;" vertex="1" parent="jRo9vK5PYB-S02NQwqbe-134">
          <mxGeometry x="30" width="150" height="30" as="geometry" />
        </mxCell>
        <mxCell id="jRo9vK5PYB-S02NQwqbe-137" value="" style="shape=partialRectangle;collapsible=0;dropTarget=0;pointerEvents=0;fillColor=none;top=0;left=0;bottom=0;right=0;points=[[0,0.5],[1,0.5]];portConstraint=eastwest;" vertex="1" parent="jRo9vK5PYB-S02NQwqbe-133">
          <mxGeometry y="60" width="180" height="30" as="geometry" />
        </mxCell>
        <mxCell id="jRo9vK5PYB-S02NQwqbe-138" value="" style="shape=partialRectangle;connectable=0;fillColor=none;top=0;left=0;bottom=0;right=0;editable=1;overflow=hidden;" vertex="1" parent="jRo9vK5PYB-S02NQwqbe-137">
          <mxGeometry width="30" height="30" as="geometry" />
        </mxCell>
        <mxCell id="jRo9vK5PYB-S02NQwqbe-139" value="Staff_name" style="shape=partialRectangle;connectable=0;fillColor=none;top=0;left=0;bottom=0;right=0;align=left;spacingLeft=6;overflow=hidden;" vertex="1" parent="jRo9vK5PYB-S02NQwqbe-137">
          <mxGeometry x="30" width="150" height="30" as="geometry" />
        </mxCell>
        <mxCell id="jRo9vK5PYB-S02NQwqbe-140" value="" style="shape=partialRectangle;collapsible=0;dropTarget=0;pointerEvents=0;fillColor=none;top=0;left=0;bottom=0;right=0;points=[[0,0.5],[1,0.5]];portConstraint=eastwest;" vertex="1" parent="jRo9vK5PYB-S02NQwqbe-133">
          <mxGeometry y="90" width="180" height="30" as="geometry" />
        </mxCell>
        <mxCell id="jRo9vK5PYB-S02NQwqbe-141" value="" style="shape=partialRectangle;connectable=0;fillColor=none;top=0;left=0;bottom=0;right=0;editable=1;overflow=hidden;" vertex="1" parent="jRo9vK5PYB-S02NQwqbe-140">
          <mxGeometry width="30" height="30" as="geometry" />
        </mxCell>
        <mxCell id="jRo9vK5PYB-S02NQwqbe-142" value="Department" style="shape=partialRectangle;connectable=0;fillColor=none;top=0;left=0;bottom=0;right=0;align=left;spacingLeft=6;overflow=hidden;" vertex="1" parent="jRo9vK5PYB-S02NQwqbe-140">
          <mxGeometry x="30" width="150" height="30" as="geometry" />
        </mxCell>
        <mxCell id="jRo9vK5PYB-S02NQwqbe-146" value="Request" style="shape=rhombus;perimeter=rhombusPerimeter;whiteSpace=wrap;html=1;align=center;" vertex="1" parent="1">
          <mxGeometry x="250" y="355" width="120" height="60" as="geometry" />
        </mxCell>
        <mxCell id="jRo9vK5PYB-S02NQwqbe-164" style="edgeStyle=orthogonalEdgeStyle;rounded=0;orthogonalLoop=1;jettySize=auto;html=1;entryX=1;entryY=0.887;entryDx=0;entryDy=0;entryPerimeter=0;" edge="1" parent="1" source="jRo9vK5PYB-S02NQwqbe-148" target="jRo9vK5PYB-S02NQwqbe-95">
          <mxGeometry relative="1" as="geometry" />
        </mxCell>
        <mxCell id="jRo9vK5PYB-S02NQwqbe-148" value="HoD_approval" style="shape=rhombus;perimeter=rhombusPerimeter;whiteSpace=wrap;html=1;align=center;" vertex="1" parent="1">
          <mxGeometry x="660" y="510" width="120" height="60" as="geometry" />
        </mxCell>
        <mxCell id="jRo9vK5PYB-S02NQwqbe-168" style="edgeStyle=orthogonalEdgeStyle;rounded=0;orthogonalLoop=1;jettySize=auto;html=1;entryX=0.5;entryY=0;entryDx=0;entryDy=0;" edge="1" parent="1" source="jRo9vK5PYB-S02NQwqbe-149" target="jRo9vK5PYB-S02NQwqbe-133">
          <mxGeometry relative="1" as="geometry" />
        </mxCell>
        <mxCell id="jRo9vK5PYB-S02NQwqbe-149" value="Places" style="shape=rhombus;perimeter=rhombusPerimeter;whiteSpace=wrap;html=1;align=center;" vertex="1" parent="1">
          <mxGeometry x="250" y="510" width="120" height="60" as="geometry" />
        </mxCell>
        <mxCell id="jRo9vK5PYB-S02NQwqbe-162" style="edgeStyle=orthogonalEdgeStyle;rounded=0;orthogonalLoop=1;jettySize=auto;html=1;entryX=1;entryY=0.5;entryDx=0;entryDy=0;" edge="1" parent="1" source="jRo9vK5PYB-S02NQwqbe-150" target="jRo9vK5PYB-S02NQwqbe-92">
          <mxGeometry relative="1" as="geometry" />
        </mxCell>
        <mxCell id="jRo9vK5PYB-S02NQwqbe-150" value="Need_Approval" style="shape=rhombus;perimeter=rhombusPerimeter;whiteSpace=wrap;html=1;align=center;" vertex="1" parent="1">
          <mxGeometry x="660" y="260" width="120" height="60" as="geometry" />
        </mxCell>
        <mxCell id="jRo9vK5PYB-S02NQwqbe-154" value="" style="endArrow=none;html=1;rounded=0;dashed=1;dashPattern=1 2;entryX=0;entryY=0.5;entryDx=0;entryDy=0;exitX=1;exitY=0.5;exitDx=0;exitDy=0;" edge="1" parent="1" source="jRo9vK5PYB-S02NQwqbe-49" target="jRo9vK5PYB-S02NQwqbe-146">
          <mxGeometry relative="1" as="geometry">
            <mxPoint x="310" y="410" as="sourcePoint" />
            <mxPoint x="470" y="410" as="targetPoint" />
            <Array as="points">
              <mxPoint x="190" y="385" />
            </Array>
          </mxGeometry>
        </mxCell>
        <mxCell id="jRo9vK5PYB-S02NQwqbe-155" value="N" style="resizable=0;html=1;align=right;verticalAlign=bottom;" connectable="0" vertex="1" parent="jRo9vK5PYB-S02NQwqbe-154">
          <mxGeometry x="1" relative="1" as="geometry" />
        </mxCell>
        <mxCell id="jRo9vK5PYB-S02NQwqbe-158" value="" style="endArrow=none;html=1;rounded=0;exitX=1;exitY=0.5;exitDx=0;exitDy=0;entryX=0;entryY=0.5;entryDx=0;entryDy=0;" edge="1" parent="1" source="jRo9vK5PYB-S02NQwqbe-146" target="jRo9vK5PYB-S02NQwqbe-89">
          <mxGeometry relative="1" as="geometry">
            <mxPoint x="310" y="410" as="sourcePoint" />
            <mxPoint x="470" y="410" as="targetPoint" />
          </mxGeometry>
        </mxCell>
        <mxCell id="jRo9vK5PYB-S02NQwqbe-163" value="" style="endArrow=none;html=1;rounded=0;entryX=0.5;entryY=0;entryDx=0;entryDy=0;exitX=1;exitY=0.5;exitDx=0;exitDy=0;" edge="1" parent="1" source="jRo9vK5PYB-S02NQwqbe-117" target="jRo9vK5PYB-S02NQwqbe-150">
          <mxGeometry relative="1" as="geometry">
            <mxPoint x="310" y="410" as="sourcePoint" />
            <mxPoint x="470" y="410" as="targetPoint" />
            <Array as="points">
              <mxPoint x="720" y="185" />
            </Array>
          </mxGeometry>
        </mxCell>
        <mxCell id="jRo9vK5PYB-S02NQwqbe-166" value="" style="endArrow=none;html=1;rounded=0;exitX=1;exitY=0.5;exitDx=0;exitDy=0;entryX=0.5;entryY=1;entryDx=0;entryDy=0;" edge="1" parent="1" source="jRo9vK5PYB-S02NQwqbe-121" target="jRo9vK5PYB-S02NQwqbe-148">
          <mxGeometry relative="1" as="geometry">
            <mxPoint x="310" y="480" as="sourcePoint" />
            <mxPoint x="470" y="480" as="targetPoint" />
            <Array as="points">
              <mxPoint x="720" y="645" />
            </Array>
          </mxGeometry>
        </mxCell>
        <mxCell id="jRo9vK5PYB-S02NQwqbe-167" value="" style="endArrow=none;html=1;rounded=0;entryX=0.5;entryY=1;entryDx=0;entryDy=0;exitX=1;exitY=0.5;exitDx=0;exitDy=0;" edge="1" parent="1" source="jRo9vK5PYB-S02NQwqbe-149" target="jRo9vK5PYB-S02NQwqbe-88">
          <mxGeometry relative="1" as="geometry">
            <mxPoint x="310" y="480" as="sourcePoint" />
            <mxPoint x="470" y="480" as="targetPoint" />
            <Array as="points">
              <mxPoint x="570" y="540" />
            </Array>
          </mxGeometry>
        </mxCell>
      </root>
    </mxGraphModel>
  </diagram>
</mxfile>
